<?xml version="1.0" encoding="utf-8"?>
<!-- Generator: Adobe Illustrator 25.4.1, SVG Export Plug-In . SVG Version: 6.00 Build 0)  -->
<svg version="1.1" id="圖層_1" xmlns="http://www.w3.org/2000/svg" xmlns:xlink="http://www.w3.org/1999/xlink" x="0px" y="0px"
	 viewBox="0 0 324 110.46" style="enable-background:new 0 0 324 110.46;" xml:space="preserve">
<style type="text/css">
	.st0{fill:#FD8082;}
</style>
<path class="st0" d="M154.42,66.87h18.74v-7.88h-18.74V66.87z M51.18,60.07H28.13v6.8h23.05V60.07z M311.21,53.88
	c-0.71-14.44-12.63-25.9-27.23-25.9c-14.59,0-26.51,11.47-27.23,25.9h-6.77c-0.71-14.42-12.62-25.9-27.23-25.9
	c-14.59,0-26.52,11.48-27.23,25.9h-6.77c-0.71-14.42-12.63-25.9-27.23-25.9c-14.59,0-26.51,11.47-27.23,25.9h-6.77
	c-0.71-14.42-12.62-25.9-27.23-25.9c-14.59,0-26.51,11.47-27.23,25.9H66.3c-0.69-14.44-12.61-25.9-27.21-25.9
	c-14.59,0-26.51,11.47-27.23,25.9H-0.13v2.1h11.97c0.4,14.71,12.43,26.51,27.24,26.51s26.84-11.8,27.24-26.51h6.74
	c0.4,14.71,12.43,26.51,27.24,26.51s26.84-11.8,27.24-26.51h6.74c0.4,14.71,12.43,26.51,27.24,26.51c14.81,0,26.84-11.8,27.24-26.51
	h6.74c0.4,14.71,12.43,26.51,27.24,26.51s26.84-11.8,27.24-26.51h6.74c0.4,14.71,12.43,26.51,27.24,26.51s26.85-11.8,27.24-26.51
	h11.97v-2.1H311.21z M35.41,37.21l2.64,3.08l-9.95,8.41v1.24h22.83l-0.04-1.09l-3.46-3.3l2.78-2.9l4.7,4.51v6.8H24.11l-0.04-7.13
	L35.41,37.21z M55.2,70.93H24.07V56.07H55.2V70.93z M86.32,70.44l-3.57-3.57l3.6-3.6l3.57,3.53L86.32,70.44z M86.32,57.52
	l-3.57-3.57l3.6-3.6l3.57,3.57L86.32,57.52z M86.32,44.45l-3.57-3.57l3.6-3.6l3.57,3.57L86.32,44.45z M115.38,60.56H95.21v1.28
	h20.17v9.09H98.71v-3.72h12.95v-1.66H91.49v-8.72h20.17v-1.28H91.39v-3.72h24L115.38,60.56L115.38,60.56z M90.82,47.12l2.85-2.9
	l2.85,2.85l-2.85,2.85L90.82,47.12z M113.06,49.94l-2.82-2.82l2.82-2.9l2.85,2.85L113.06,49.94z M116.43,43H109v7.88h-4.05V43h-3.16
	v7.88h-4.05V43h-7.43v-3.72h11.08v-2.07h4.02v2.07h11.04L116.43,43L116.43,43z M177.28,47.54l-17.65,7.4h17.58v15.99h-26.85V58.85
	l-4.61,1.92l-1.54-3.72l11.9-5l-3.9-3.08l2.52-3.16l5.63,4.47l12.88-5.45v-0.84h-19.3l-6.5,5.78l-2.67-3.04l6.08-5.4v-3.98h4.05
	v2.59h22.37v7.59C177.27,47.54,177.28,47.54,177.28,47.54z M239.74,49.97H214.8v5.59h21.55v15.36h-4.06V59.61h-17.5v5.11l-4.58,6.15
	l-3.27-2.41l3.79-5.07V37.28h4.05v8.63h13.97v-8.63h4.02v8.63h6.94v4.06H239.74z M301.32,70.93h-33.68v-4.06h14.8V56.58h-13.02
	v-4.06h13.02v-9.98h-13.93v-4.02h31.95v4.02H286.5v9.98h13.07v4.06H286.5v10.29h14.82V70.93z"/>
</svg>
