<?xml version="1.0" encoding="utf-8"?>
<!-- Generator: Adobe Illustrator 25.4.1, SVG Export Plug-In . SVG Version: 6.00 Build 0)  -->
<svg version="1.1" id="圖層_1" xmlns="http://www.w3.org/2000/svg" xmlns:xlink="http://www.w3.org/1999/xlink" x="0px" y="0px"
	 viewBox="0 0 100 100" style="enable-background:new 0 0 100 100;" xml:space="preserve">
<style type="text/css">
	.st0{fill:#FD8082;}
</style>
<path class="st0" d="M72.2,58.9H29.9v12.5h42.3V58.9z M99.9,47.5C98.6,21,76.8,0,50,0C23.2,0,1.4,21,0,47.5h0v3.9l0,0
	c0.7,27,22.8,48.6,50,48.6s49.2-21.6,50-48.6 M43.2,16.9l4.8,5.7L29.8,38v2.3h41.9l-0.1-2l-6.3-6.1l5.1-5.3l8.6,8.3v12.5H22.5
	l-0.1-13.1L43.2,16.9z M79.5,78.8H22.4V51.5h57.1V78.8z"/>
</svg>
