<?xml version="1.0" encoding="utf-8"?>
<!-- Generator: Adobe Illustrator 25.4.1, SVG Export Plug-In . SVG Version: 6.00 Build 0)  -->
<svg version="1.1" id="圖層_1" xmlns="http://www.w3.org/2000/svg" xmlns:xlink="http://www.w3.org/1999/xlink" x="0px" y="0px"
	 viewBox="0 0 2111 1080" style="enable-background:new 0 0 2111 1080;" xml:space="preserve">
<style type="text/css">
	.st0{fill:#F7931E;}
</style>
<g>
	<rect x="437.9" y="189.3" class="st0" width="59.5" height="17.5"/>
	<rect x="763.7" y="186.5" class="st0" width="48.3" height="20.3"/>
	<path class="st0" d="M1687.2,174.2c1.1-0.9,1.9-2.2,1.9-3.8c0-2.8-2.1-4.8-5.1-4.8s-5.1,1.9-5.1,4.8c0,1.2,0.4,2.2,1,3
		c-1.7-0.1-3.3-0.2-5-0.2h-28.6c5.9-2.8,10.7-6.7,14-12.2l-5.3-2.3c-5.8,9.5-17.3,13.1-32.6,14.6h-21.7c7.2-3.3,12.9-8.3,16.3-15.7
		l-4-2.3l-1.1,0.3h-8.7c1.1-1.1,2-2.1,3-3.3l-6.3-1.5c-3.7,4.7-10.4,9.5-20.4,12.6c1.2,1,2.9,3.2,3.5,4.5c2.2-0.8,4.3-1.7,6.3-2.7
		c1.7,1.5,3.7,3.1,5.1,4.5c-5.1,1.8-11,2.9-17.3,3.5h-14.5c-2.5-0.7-5.3-1.4-8.2-2.1c1.7-1.5,3.1-3.2,4.4-5.2h9.6v-4.8h-7.3
		c0.1-0.4,0.3-0.9,0.5-1.4l-5.6-1.4c-0.3,0.9-0.7,1.8-1.1,2.7h-11.7c0.6-1.1,1.2-2.2,1.7-3.3l-5.1-1.2h26v-13.6h-11.6v-2.8h13.2v-5
		h-42.3v5h12.8v2.8h-10.5v13.6h11.8c-0.7,1.4-1.5,2.9-2.4,4.4h-12.3v4.8h9.2c-1.3,1.7-2.5,3.3-3.7,4.7c3.3,0.6,6.4,1.2,9.5,1.8
		c-1.4,0.3-2.8,0.6-4.4,0.8h-21.6c-1.4-0.5-2.9-1.1-4.5-1.6h5.3v-16.7c0.3,0,0.6,0,0.8,0c1.1,0,2.1-0.4,2.8-1.2
		c0.8-0.9,1.1-2.6,1.4-5.6c0-0.6,0-1.5,0-1.5H1506v-2.1h10.3v-8.7H1506v-2.1h-5.5v2.1h-5.4v-2.1h-5.2v2.1h-11v3.4h11v1.9h-9.3
		c-0.3,2.9-0.9,6.4-1.4,8.8h7.8c-2.1,1.5-5.5,2.7-11.3,3.4c0.9,1.1,2.3,3.3,2.8,4.5c1.3-0.2,2.5-0.4,3.6-0.7v14.4h6.4
		c-1.4,0.6-3,1.1-4.7,1.6h-13.5c0-0.4,0-0.7,0-1.1v-37.6h-5.4V172c0,0.8-0.2,1-1,1c-0.8,0-3.2,0-5.6-0.1c0,0.1,0.1,0.2,0.1,0.3h-6.4
		c0.1-0.1,0.2-0.1,0.3-0.2c1.2-0.8,1.4-2,1.4-4v-14.4h-7.3v-4h-4.8v4h-6.8v18.6h-2.8c2.1-6.9,2.5-15.6,2.5-21.7v-1.8h19v-14.1h-24.1
		v16c0,6.4-0.2,15.3-2.9,21.7h-19.3v-30.5h8.6v22.6c0,0.6-0.2,0.9-0.9,0.9c-0.7,0-3.1,0-5.3-0.1c0.9,1.6,1.9,4.4,2.2,6.1
		c3.3,0,5.7-0.1,7.6-1.2c1.8-1,2.3-2.9,2.3-5.6v-28.5h-20.3v36.3h-18.5c5.1-1.7,11.2-3.7,16.9-5.7l-0.8-5c-4.1,1.2-8.4,2.5-12.2,3.6
		v-10.5h12V150h-12v-6.8c4.4-1,8.9-2.2,12.8-3.7l-4.4-4.7c-3.5,1.7-9.1,3.4-14.1,4.6v28.4l-2.2,0.6l1.1,4.8h-8.4
		c1.1-4.1,1.5-12.5,2-29.5c0-0.7,0-2.6,0-2.6h-13.7c0.7-2,1.4-4.1,1.9-6.2l-5.5-1.3c-1.4,5.7-3.7,11.6-6.6,15.6v-7.9h-7.5
		c0.8-2.1,1.7-4.5,2.5-6.9l-6.3-0.9c-0.2,2.3-0.8,5.4-1.4,7.8h-5.5v31.7h-5.6c0.3-1.3,0.6-2.8,0.8-4.7c-1.6-0.6-3.5-1.9-4.8-3.3
		c-0.2,5.2-0.7,7.6-1.6,8h-0.7c-1.3-0.4-2.7-2.5-3.9-5.9c3.2-3.2,5.9-6.7,8.1-10.6l-5.1-2.2c-1.3,2.3-2.9,4.5-4.6,6.6
		c-0.5-2.5-1-5.3-1.4-8.2h12.6v-5.5h-13.2c-0.4-4.3-0.6-8.8-0.5-13.3h-6.1c0,4.4,0.2,8.9,0.6,13.3h-9.3v-6.6
		c2.8-0.6,5.5-1.2,7.9-1.9l-3.9-4.9c-5,1.6-12.5,3.2-19.3,4.1c0.6,1.3,1.4,3.4,1.7,4.9c2.5-0.3,5.1-0.6,7.8-1.1v5.5h-9.2v5.5h9.2
		v6.5c-3.8,0.7-7.3,1.2-10.1,1.7l1.4,5.8c2.6-0.5,5.6-1.1,8.7-1.7v7c0,0.8-0.3,1-1.2,1c-0.2,0-0.4,0-0.7,0h-3.8
		c-0.6,0-1.3,0-1.9-0.1c0,0,0,0,0,0.1h-8.1c0,0,0-0.1,0-0.1v-38h-18.9v15.9h13.2v22c0,0.1,0,0.1,0,0.2h-2.7v-9.4h-11v9.4h-2.2v-9.4
		H1243v9.4h-2.6v-22.2h12.8v-15.9h-18.4v38.1h-6.7c0.4-1.1,0.6-2.5,0.8-4.2c-1.7-0.3-4.2-1.2-5.6-2.1c-0.4,4.8-1,5.6-4.2,5.6h-11.6
		c-3.9,0-4.6-0.3-4.6-2.2v-4.9h19.9v-5.1H1203c2.7-1.7,5.4-3.5,7.9-5.5h17.6v-5.3h-11.3c3.6-3.4,6.9-7.2,9.8-11.3l-5.5-2.7
		c-1.6,2.3-3.3,4.5-5.2,6.6v-2.6h-10.6v-5.9h-5.8v5.9h-11v5.2h11v4.8h-15.4v5.3h16.2c-5.4,3.4-11.3,6.2-17.5,8.3
		c1.2,1.2,3.3,3.8,4.2,5.1c3.2-1.3,6.4-2.7,9.5-4.4v6.6c0,1.1,0.1,2.1,0.3,2.9h-28.9c-1.8-37.2-32.6-66.8-70.2-66.8
		c-37.6,0-68.4,29.6-70.2,66.8h-17.5c-1.8-37.2-32.6-66.8-70.2-66.8c-37.6,0-68.4,29.6-70.2,66.8h-17.5
		c-1.8-37.2-32.6-66.8-70.2-66.8c-37.6,0-68.4,29.6-70.2,66.8h-17.5c-1.8-37.2-32.6-66.8-70.2-66.8c-37.6,0-68.4,29.6-70.2,66.8
		h-17.4c-1.8-37.2-32.5-66.8-70.2-66.8c-37.6,0-68.4,29.6-70.2,66.8H365v5.4h30.9c1,37.9,32.1,68.4,70.3,68.4s69.2-30.4,70.3-68.4
		h17.4c1,37.9,32.1,68.4,70.3,68.4s69.2-30.4,70.3-68.4h17.4c1,37.9,32.1,68.4,70.3,68.4s69.2-30.4,70.3-68.4h17.4
		c1,37.9,32.1,68.4,70.3,68.4c38.2,0,69.2-30.4,70.3-68.4h17.4c1,37.9,32.1,68.4,70.3,68.4s69.3-30.4,70.3-68.4h30.9v0.1h35.8v0.1
		h5.6v-0.1h25c0,0,0,0.1,0,0.1c1.6,0,3,0,4.1-0.1h15.9c0,0,0,0.1,0,0.1c1.5,0,2.8,0,4-0.1h28.2c0.6,0.2,1.2,0.3,1.8,0.3
		c0.9,0,1.6-0.1,2.3-0.3h79.5v0h5.8v0h34.4v0.1h4.8v-0.1h33.3c0.1,0.1,0.1,0.2,0.2,0.2c0.3-0.1,0.6-0.2,0.9-0.2h34.2
		c0.1,0.1,0.3,0.1,0.4,0.2l0.2-0.2h10.9c0,0.1,0,0.2,0.1,0.2c1-0.1,1.9-0.2,2.8-0.2h46.3c0,0.1,0,0.2,0.1,0.2
		c0.7-0.1,1.5-0.2,2.2-0.2h45.4c0,0,0,0,0,0c0.1,0,0.2,0,0.3,0h51.4c38.7,0,70.2,31.5,70.2,70.2v604c0,38.7-31.5,70.2-70.2,70.2H364
		c-38.7,0-70.2-31.5-70.2-70.2V249c0-38.7,31.5-70.2,70.2-70.2h1v-5.7h-1c-41.8,0-75.8,34-75.8,75.8v604c0,41.8,34,75.8,75.8,75.8
		h1311c41.8,0,75.8-34,75.8-75.8V249C1750.8,211.4,1723.2,180,1687.2,174.2z M1594.4,162.5c0.9-0.6,1.9-1.3,2.8-1.9h11
		c-2.1,2.7-4.9,4.9-8.2,6.7C1598.5,165.7,1596.3,163.9,1594.4,162.5z M1554.3,147.6h5.8v4.5h-5.8V147.6z M1543.4,140.3h5.5v2.8h-5.5
		V140.3z M1543.4,147.6h5.5v4.5h-5.5V147.6z M1538,152.2h-5.1v-4.5h5.1V152.2z M1538.9,167.7c0.4-0.6,0.9-1.2,1.4-1.8h11.6
		c-1.2,1.5-2.7,2.6-4.4,3.6C1544.7,168.8,1541.8,168.2,1538.9,167.7z M1506,139.1h5.1v1.9h-5.1V139.1z M1434.6,140.5h13.6v3.9h-13.6
		V140.5z M1262,139.3h7.7v1.8h-7.7V139.3z M1262,146.7v-2h7.7v2H1262z M1259.8,167.6h3.1v3.4h-3.1V167.6z M1246.8,167.6h2.9v3.4
		h-2.9V167.6z M1240.4,139.3h7.3v1.8h-7.3V139.3z M1240.4,144.7h7.3v2h-7.3V144.7z M1205.1,144.7h8.6c-1.7,1.7-3.5,3.3-5.5,4.8h-3.1
		V144.7z M456.7,130.3l6.8,7.9l-25.7,21.7v3.2h58.9l-0.1-2.8l-8.9-8.5l7.2-7.5L507,156v17.5h-79.5l-0.1-18.4L456.7,130.3z
		 M507.7,217.3h-80.3V179h80.3V217.3z M588,216l-9.2-9.2l9.3-9.3l9.2,9.1L588,216z M588,182.7l-9.2-9.2l9.3-9.3l9.2,9.2L588,182.7z
		 M588,149l-9.2-9.2l9.3-9.3l9.2,9.2L588,149z M663,190.5h-52v3.3h52v23.4h-43v-9.6h33.4v-4.3h-52v-22.5h52v-3.3h-52.3V168H663
		L663,190.5z M599.6,155.9l7.4-7.5l7.4,7.4l-7.4,7.4L599.6,155.9z M657,163.1l-7.3-7.3l7.3-7.5l7.4,7.4L657,163.1z M665.7,145.2
		h-19.2v20.3h-10.4v-20.3h-8.2v20.3h-10.4v-20.3h-19.2v-9.6h28.6v-5.3h10.4v5.3h28.5L665.7,145.2z M822.5,176v41.2h-69.3v-31.2
		l-11.9,5l-4-9.6l30.7-12.9l-10.1-7.9l6.5-8.2L779,164l33.2-14.1v-2.2h-49.8l-16.8,14.9l-6.9-7.8l15.7-13.9v-10.3h10.4v6.7h57.7
		v19.6c0,0,0,0,0,0L777.1,176H822.5z M983.7,163.2h-64.3v14.4H975v39.6h-10.5v-29.2h-45.1v13.2l-11.8,15.9l-8.4-6.2l9.8-13.1v-67.4
		h10.4v22.3h36v-22.3h10.4v22.3h17.9V163.2z M1142.6,217.3h-86.9v-10.5h38.2v-26.5h-33.6v-10.5h33.6v-25.7H1058v-10.4h82.4v10.4h-36
		v25.7h33.7v10.5h-33.7v26.5h38.2V217.3z M1336.8,146.5h7.7v7.9h-7.7V146.5z M1336.8,159.3h7.7v9.5h-7.7V159.3z M1349.8,151.3
		c1.3,0.9,3,2,3.7,2.7c1.5-2.1,3-4.8,4.3-7.7h10.4c-0.5,17.1-1.2,24.4-2.6,26c-0.6,0.6-1.2,0.8-2.1,0.8c-1.3,0-4.1,0-7.2-0.3
		c0.1,0.1,0.1,0.2,0.2,0.3h-6.6V151.3z M1312,173.2h-3c0.8-0.6,1.5-1.1,2.2-1.7C1311.5,172,1311.7,172.6,1312,173.2z M1296.9,172.2
		v-8.3l7.9-1.6l-0.4-5.2c-2.5,0.4-5,0.9-7.5,1.4v-5.5h9.9c0.6,4.8,1.4,9.2,2.5,13c-3.4,2.8-7.1,5.1-10.8,6.9
		c0.2,0.1,0.3,0.3,0.5,0.5h-2C1296.9,172.9,1296.9,172.5,1296.9,172.2z M1508.6,163.2h-20.9v-2h20.9V163.2z M1506,149.9h7.7
		c0,0.7-0.2,1.1-0.3,1.3c-0.3,0.3-0.6,0.3-1,0.3c-0.5,0-1.6,0-2.7-0.1c0.3,0.4,0.5,1,0.7,1.6h-4.3V149.9z M1495.1,139.1h5.4v1.9
		h-5.4V139.1z M1495.1,144.4h5.4v2.1h-5.6C1495,145.9,1495.1,145.2,1495.1,144.4z M1493.9,149.9h6.6v3.1h-8.8
		C1492.6,152.1,1493.4,151,1493.9,149.9z M1508.6,156.2v1.9h-20.9v-1.9H1508.6z M1484.9,146.6l0.3-2.1h4.6c0,0.7-0.1,1.5-0.3,2.1
		H1484.9z M1487.7,168.3v-2h20.9v2H1487.7z M1491.6,171.6h11.9l-1.6,1.6h-6.9L1491.6,171.6z M1439.1,173.2v-13.9h2.6v13.9H1439.1z
		 M1446.4,159.3h2.8v9.6c0,0.4-0.1,0.5-0.4,0.5c-0.3,0-1.1,0-2,0c0.5,1.1,1,2.6,1.3,3.8h-1.5V159.3z"/>
	<path class="st0" d="M1246.1,161.9h17.6v-9.6h-17.6V161.9z M1250.7,156h7.9v2.2h-7.9V156z"/>
	<path class="st0" d="M1320.3,145.9l4.7-3.3c-1.4-2.3-4.6-5.5-7.2-7.7l-4.4,3C1316.1,140.3,1319.1,143.7,1320.3,145.9z"/>
	<path class="st0" d="M1365.6,163.2c-1.5-2.8-4.7-7.4-7.1-10.8l-4.5,2.6c2.4,3.5,5.4,8.3,6.8,11.2L1365.6,163.2z"/>
	<rect x="1456.6" y="138.3" class="st0" width="5.1" height="28.2"/>
	<path class="st0" d="M1576.6,159.4c14-2.6,27.8-8.6,34.1-19.8l-3.8-2.3l-1,0.2h-10.3c0.9-0.9,1.8-1.7,2.6-2.6l-6.2-1.5
		c-3.3,3.8-9,7.9-16.9,10.8c1.3,0.8,3.1,2.8,3.9,4.1c1.6-0.7,3-1.4,4.4-2.2c1.7,1.4,3.4,3,4.8,4.4c-4.5,1.7-9.4,3-14.3,3.7
		C1574.9,155.6,1576,157.9,1576.6,159.4z M1587.9,143.6c0.5-0.3,1-0.6,1.4-1h12.1c-2.1,2.1-4.9,4.1-8,5.7
		C1592,146.8,1590,145.1,1587.9,143.6z"/>
	<rect x="1640.2" y="133.6" class="st0" width="5.7" height="30.2"/>
	<path class="st0" d="M1666.1,156.1c-1.9-4.3-5.7-10.6-9-15.6l-4.7,2.4c3.1,5,6.9,11.9,8.7,16.1L1666.1,156.1z"/>
	<path class="st0" d="M1635.4,142.1l-5.5-1.4c-1.9,5.6-5.2,11.8-8.4,15.7c1.4,0.6,3.9,2,5.1,2.8C1629.6,155,1633,148.3,1635.4,142.1
		z"/>
	<path class="st0" d="M1684,143.6c3.8,0,6.1,1.7,6.1,4.6c0,4.7-10.3,6.5-9.3,14.1h6.3c-0.7-6.8,9.9-7.6,9.9-14.7
		c0-6.5-5.1-9.7-12.2-9.7c-5.2,0-9.5,2.3-12.5,5.9l4,3.7C1678.5,144.9,1681,143.6,1684,143.6z"/>
</g>
</svg>
