<?xml version="1.0" encoding="utf-8"?>
<!-- Generator: Adobe Illustrator 25.4.1, SVG Export Plug-In . SVG Version: 6.00 Build 0)  -->
<svg version="1.1" id="圖層_1" xmlns="http://www.w3.org/2000/svg" xmlns:xlink="http://www.w3.org/1999/xlink" x="0px" y="0px"
	 viewBox="0 0 1080 1080" style="enable-background:new 0 0 1080 1080;" xml:space="preserve">
<style type="text/css">
	.st0{fill-rule:evenodd;clip-rule:evenodd;fill:#221E1F;}
</style>
<path class="st0" d="M540.01,0C241.76,0,0,241.7,0,539.99c0,298.2,241.76,539.96,540.01,539.96c298.2,0,539.99-241.79,539.99-539.96
	C1080,241.7,838.21,0,540.01,0z M284.85,278.15h510.29c32.81,0,61.93,14.79,81.83,37.87c-3.21,4.51-6.53,8.84-10.48,12.88
	L611.42,583.98c-19.81,19.76-45.52,29.43-71.4,29.55c-25.88-0.09-51.7-9.79-71.43-29.55L213.54,328.81
	c-4.01-3.96-7.28-8.29-10.48-12.8C222.93,293.03,251.98,278.15,284.85,278.15z M903.63,693.3c0,59.99-48.61,108.52-108.49,108.52
	H284.85c-59.88,0-108.52-48.52-108.52-108.52V386.64c0-14.24,2.92-27.64,7.86-40.09c1.82,2.11,3.23,4.39,5.2,6.44l255.05,255.05
	c26.37,26.28,61.06,39.57,95.58,39.51h0.23c34.43,0,68.92-13.23,95.26-39.51l255.13-255.05c1.99-2.02,3.35-4.33,5.17-6.44
	c4.94,12.45,7.86,25.85,7.86,40.09V693.3H903.63z"/>
</svg>
