<?xml version="1.0" encoding="utf-8"?>
<!-- Generator: Adobe Illustrator 25.4.1, SVG Export Plug-In . SVG Version: 6.00 Build 0)  -->
<svg version="1.1" id="圖層_1" xmlns="http://www.w3.org/2000/svg" xmlns:xlink="http://www.w3.org/1999/xlink" x="0px" y="0px"
	 viewBox="0 0 1080 1080" style="enable-background:new 0 0 1080 1080;" xml:space="preserve">
<style type="text/css">
	.st0{fill-rule:evenodd;clip-rule:evenodd;fill:#1DBF21;}
	.st1{fill:#1DBF21;}
</style>
<g>
	<path class="st0" d="M540,0C241.78,0,0,241.73,0,540c0,298.22,241.78,540,540,540c298.27,0,540-241.78,540-540
		C1080,241.73,838.27,0,540,0z M799.27,691.68c0,0-1.31,1.25-3.19,3.01c-1.73,1.73-3.63,3.37-5.46,5.12
		c-29.04,27.21-130.38,118.7-243.77,181.17c0,0-26.03,18.51-39.81,4.78c-13.67-13.72,0-25.35,7.58-41.85
		c7.58-16.49,11-47.29-12.36-52.8c-0.18-0.1-0.44-0.29-0.68-0.39c-163.97-15.27-291.26-126.8-291.26-262.3
		c0-145.91,147.58-264.26,329.71-264.26c182.03,0,329.61,118.36,329.61,264.26c0,61.74-26.61,118.36-70.76,163.34L799.27,691.68z"/>
	<path class="st1" d="M418.79,579.21c-4.16-3.66-9.67-5.23-15.66-5.23h-39.13V463.47h-0.05c0.05-7.35-1.65-13.72-5.99-18.45
		c-3.97-4.39-9.75-6.67-15.79-6.56c-5.99-0.1-11.74,2.27-15.6,6.67c-4.26,4.73-5.86,11.11-5.86,18.35v122.8
		c0,7.68,1.75,14.3,6.19,18.92c4.68,4.63,11.32,6.38,19.08,6.38h57.14c5.99,0,11.5-1.44,15.55-5.12c3.97-3.29,6.14-8.31,6.09-13.62
		C424.83,587.73,422.61,582.68,418.79,579.21z"/>
	<path class="st1" d="M472.27,445.01c-4-4.39-9.8-6.67-15.84-6.56c-5.99-0.1-11.68,2.27-15.55,6.67
		c-4.31,4.73-5.99,11.11-5.91,18.35l-0.1,125.65h0.1c-0.1,7.29,1.75,13.67,5.93,18.4c3.82,4.44,9.57,6.85,15.5,6.77h0.39
		c5.91,0,11.55-2.33,15.45-6.67c4.29-4.68,5.93-11.21,5.93-18.51V463.47C478.21,456.12,476.56,449.74,472.27,445.01z"/>
	<path class="st1" d="M625.21,445.19c-3.42-4.26-8.78-6.67-14.25-6.56c-5.46-0.1-10.72,2.33-13.96,6.56
		c-3.53,4.65-4.73,10.43-4.73,17.2v76.04l-47.34-77.84l0.1-0.05c-1.59-2.72-3.08-5.31-4.63-7.92c-1.65-2.69-3.29-5.02-5.07-7.06
		c-1.78-2.12-4.05-3.82-6.56-4.97c-2.72-1.36-5.88-1.99-9.07-1.99c-4.44,0-8.94,1.44-12.6,4.05c-3.63,2.61-6.53,6.22-8.13,10.38
		c-1.36,3.97-1.99,8.55-1.99,14.25v122.96c0,6.72,1.36,12.52,5.07,17.15c3.19,4.26,8.55,6.67,14.11,6.56h0.34
		c5.2,0,10.35-2.4,13.72-6.48c3.66-4.55,5.02-10.48,5.02-17.25v-74.34l45.9,76.53c1.65,2.72,3.24,5.23,4.97,7.63
		c1.65,2.72,3.71,5.12,5.86,7.24c2.27,2.22,4.91,3.95,7.68,5.02c2.85,1.12,5.91,1.65,9.12,1.65c13.62,0,21.2-11.29,21.2-26.19
		V462.34C629.94,455.65,628.69,449.74,625.21,445.19z"/>
	<path class="st1" d="M751.07,579.89c-3.97-3.66-9.33-4.97-15.21-4.97h-46.13v-34.45h45.51c5.7,0,10.93-1.15,14.82-4.97
		c3.48-3.14,5.31-7.97,5.25-12.7c0.05-4.84-1.83-9.67-5.36-12.86c-3.92-3.48-9.12-4.78-14.74-4.78H689.7v-28.2h45.61
		c5.88,0.16,11.16-1.2,15.16-4.78c3.71-3.32,5.59-8.21,5.57-13.15c0.05-4.91-1.93-9.8-5.57-13.04c-4-3.58-9.28-4.89-15.16-4.89
		h-63.52c-5.18,0-9.62,0.81-13.51,2.56c-4,1.73-7.35,5.02-9.17,9.07c-1.83,3.95-2.61,8.5-2.61,13.67v119.85
		c0,7.68,1.65,14.3,6.19,18.92c4.68,4.63,11.34,6.38,19.13,6.38h64.07c5.88,0,11.27-1.36,15.21-4.91c3.76-3.37,5.65-8.36,5.59-13.33
		C756.72,588.3,754.83,583.18,751.07,579.89z"/>
</g>
</svg>
