<?xml version="1.0" encoding="utf-8"?>
<!-- Generator: Adobe Illustrator 25.4.1, SVG Export Plug-In . SVG Version: 6.00 Build 0)  -->
<svg version="1.1" id="圖層_1" xmlns="http://www.w3.org/2000/svg" xmlns:xlink="http://www.w3.org/1999/xlink" x="0px" y="0px"
	 viewBox="0 0 300 300" style="enable-background:new 0 0 300 300;" xml:space="preserve">
<style type="text/css">
	.st0{fill-rule:evenodd;clip-rule:evenodd;fill:#221E1F;}
</style>
<path class="st0" d="M149.84,0.31c-82.67,0-149.68,67-149.68,149.68c0,82.65,67,149.67,149.68,149.67
	c82.66,0,149.66-67.02,149.66-149.67C299.5,67.31,232.5,0.31,149.84,0.31z M230.42,233.82c-3.97,3.88-7.9,7.73-11.75,11.74
	c-1.6,1.69-3.45,2.8-5.59,3.5c-1.48,0.48-2.97,0.92-4.46,1.42h-7.71c-0.32-0.07-0.64-0.13-0.99-0.13
	c-3.37-0.26-6.72-0.41-10.09-0.75c-9.61-1.03-19.08-2.91-28.32-5.72c-27.34-8.3-50.87-22.71-70.2-43.74
	c-25.2-27.38-38.98-59.74-41.67-96.86c-0.09-1.46-0.19-2.91-0.29-4.37v-7.94c0.42-1.3,0.85-2.64,1.31-3.99
	c0.77-2.31,2.01-4.26,3.76-5.93c3.94-3.82,7.8-7.75,11.68-11.65c3.5-3.57,7.85-5.49,12.67-5.99c10.43-0.96,18.19,3.54,23.98,11.91
	c1.73,2.45,2.59,5.18,3.35,8.04c1.95,7.34,4.13,14.57,5.88,21.91c1.99,8.21,0.03,15.59-5.78,21.86c-2.48,2.7-5.19,5.28-7.85,7.88
	c-0.48,0.48-0.56,0.85-0.4,1.51c5.37,18.66,15.43,34.25,30.22,46.72c10.33,8.72,22.01,14.89,34.98,18.61
	c0.76,0.21,1.2,0.1,1.72-0.43c2.46-2.48,4.96-4.85,7.37-7.41c3.47-3.64,7.86-5.6,12.73-6.52c3.75-0.71,7.36-0.38,11.09,0.7
	c7.36,2.06,14.75,4.06,22.18,6.03c5.29,1.46,9.49,4.6,12.81,8.83c3.94,4.9,5.97,10.52,5.5,16.81
	C236.17,225.22,234.3,229.97,230.42,233.82z M174.91,149.89h-12.49c-0.15-3.32-1.31-6.34-3.73-8.78c-2.37-2.37-5.35-3.55-8.82-3.72
	v-12.51C163.8,124.71,175.16,136.57,174.91,149.89z M149.88,99.72V87.27c32.91-0.92,63.21,27.51,62.72,62.7h-12.5
	c-0.27-13.81-5.04-25.73-14.84-35.46C175.57,104.74,163.69,99.99,149.88,99.72z M250.34,149.96h-12.52
	c-0.41-24.13-8.79-45.01-25.86-62.06C194.89,70.82,174.03,62.46,149.85,62V49.49h4.66c1.82,0.15,3.64,0.28,5.42,0.49
	c13.63,1.35,26.44,5.29,38.39,11.91c18.51,10.31,32.44,24.98,41.85,43.99c4.88,9.75,7.96,20.13,9.33,31.01
	c0.34,2.59,0.48,5.14,0.73,7.73c0,0.27,0.08,0.53,0.11,0.8V149.96z"/>
</svg>
